<svg xmlns="http://www.w3.org/2000/svg" viewBox="0 0 4000 4000" width="100%" height="100%">
  <path d="M2232,3546L2231,3547L2234,3547L2234,3546Z M2219,3544L2218,3545L2218,3547L2225,3547L2225,3546L2223,3544Z M1326,3542L1325,3543L1324,3543L1324,3547L1334,3547L1334,3543L1333,3542Z M2232,3533L2231,3534L2234,3534L2234,3533Z M1315,3530L1313,3532L1313,3533L1316,3536L1318,3536L1319,3535L1319,3534L1320,3533L1320,3531L1319,3530Z M2231,3429L2230,3430L2230,3436L2235,3436L2236,3435L2237,3435L2237,3431L2235,3429Z M1329,3415L1328,3416L1327,3416L1325,3418L1325,3422L1326,3423L1333,3423L1333,3416L1332,3416L1331,3415Z M2218,3414L2216,3416L2216,3423L2225,3423L2225,3422L2226,3421L2226,3419L2225,3418L2225,3416L2224,3415L2223,3415L2222,3414Z M1342,3405L1341,3406L1341,3408L1342,3409L1344,3409L1345,3408L1345,3406L1344,3405Z M2205,3403L2204,3404L2204,3410L2209,3410L2210,3409L2211,3409L2211,3405L2209,3403Z M1380,3389L1379,3390L1378,3390L1377,3391L1377,3396L1378,3397L1385,3397L1385,3390L1384,3389Z M2141,3376L2139,3378L2139,3384L2146,3384L2146,3383L2147,3382L2147,3379L2145,3377L2144,3377L2143,3376Z M1404,3376L1403,3377L1403,3378L1402,3379L1402,3383L1403,3384L1406,3384L1407,3385L1408,3385L1409,3384L1411,3384L1411,3377L1410,3376Z M2127,3365L2127,3366L2126,3367L2126,3370L2127,3371L2131,3371L2133,3369L2133,3367L2131,3365Z M1419,3363L1418,3364L1417,3364L1416,3365L1416,3367L1415,3368L1415,3369L1416,3370L1416,3371L1424,3371L1424,3365L1422,3363Z M2114,3352L2114,3353L2113,3354L2113,3357L2114,3358L2118,3358L2120,3356L2120,3354L2118,3352Z M1431,3350L1428,3353L1428,3357L1429,3358L1431,3358L1432,3359L1435,3359L1436,3358L1437,3358L1437,3351L1436,3350Z M2102,3327L2101,3328L2101,3331L2105,3331L2105,3328L2104,3327Z M1445,3325L1444,3326L1443,3326L1443,3327L1442,3328L1442,3331L1443,3332L1449,3332L1449,3331L1450,3330L1450,3328L1449,3327L1449,3326L1448,3325Z M2088,3141L2087,3142L2087,3147L2088,3148L2092,3148L2093,3147L2094,3147L2094,3145L2095,3144L2095,3143L2093,3141Z M456,2066L455,2067L455,2071L456,2072L460,2072L461,2071L461,2070L462,2069L462,2068L460,2066Z M408,2066L406,2068L406,2069L407,2070L407,2071L408,2072L412,2072L413,2071L413,2067L412,2066Z M495,2053L494,2054L494,2058L495,2059L499,2059L500,2058L500,2057L501,2056L501,2055L499,2053Z M380,2053L379,2054L379,2058L382,2061L386,2061L387,2060L387,2059L388,2058L388,2054L387,2053Z M508,2041L508,2044L509,2045L511,2045L512,2044L512,2042L511,2041Z M370,2040L369,2041L368,2041L368,2045L369,2046L373,2046L374,2045L374,2041L373,2040Z M344,1962L344,1970L346,1970L348,1968L348,1963L347,1962Z M534,1806L532,1808L532,1812L533,1813L533,1814L534,1815L537,1815L538,1814L539,1814L540,1813L540,1812L541,1811L541,1808L540,1807L539,1807L538,1806Z M2089,1784L2088,1785L2088,1786L2087,1787L2087,1789L2088,1790L2093,1790L2094,1789L2094,1786L2093,1785L2092,1785L2091,1784Z M546,1781L546,1787L547,1788L551,1788L553,1786L553,1782L552,1781Z M560,1754L559,1755L558,1755L558,1762L559,1763L565,1763L567,1761L567,1755L564,1755L563,1754Z M2076,1745L2075,1746L2075,1747L2074,1748L2074,1750L2076,1752L2078,1752L2079,1751L2080,1751L2081,1750L2081,1747L2080,1746L2079,1746L2078,1745Z M573,1742L572,1743L572,1748L577,1748L578,1747L578,1743L577,1743L576,1742Z M2062,1731L2061,1732L2061,1739L2068,1739L2069,1738L2069,1733L2067,1731Z M2050,1721L2049,1722L2049,1724L2050,1725L2052,1725L2054,1723L2053,1722L2053,1721Z M589,1718L588,1719L587,1719L587,1722L590,1722L590,1721L591,1720L591,1719L590,1719Z M2558,1716L2556,1718L2556,1721L2558,1723L2563,1723L2563,1721L2564,1720L2564,1717L2563,1716Z M602,1705L601,1706L600,1706L600,1709L603,1709L603,1708L604,1707Z M2943,1703L2942,1704L2942,1709L2943,1710L2947,1710L2948,1709L2949,1709L2949,1707L2950,1706L2950,1705L2948,1703Z M1973,1693L1971,1695L1971,1699L1972,1700L1975,1700L1976,1699L1977,1699L1977,1695L1976,1694L1975,1694L1974,1693Z M613,1693L613,1696L616,1696L616,1695L617,1694L616,1693Z M2197,1691L2195,1693L2196,1694L2196,1695L2199,1695L2200,1694L2200,1692L2199,1691Z M3035,1690L3034,1691L3033,1691L3033,1695L3035,1697L3036,1697L3037,1696L3038,1696L3039,1695L3039,1694L3040,1693L3039,1692L3039,1691L3038,1691L3037,1690Z M1933,1680L1932,1681L1932,1687L1938,1687L1939,1686L1939,1682L1937,1680Z M3100,1678L3099,1679L3099,1682L3102,1682L3103,1681L3103,1679L3102,1678Z M2092,1677L2091,1678L2090,1678L2090,1682L2092,1684L2096,1684L2097,1683L2097,1678L2096,1677Z M639,1677L638,1678L637,1678L637,1683L638,1684L640,1684L641,1683L642,1683L643,1682L643,1679L642,1678L641,1678L640,1677Z M1896,1668L1895,1669L1895,1673L1896,1674L1898,1674L1899,1673L1899,1669L1898,1668Z M344,1666L344,1674L348,1674L348,1668L347,1667L345,1667Z M1990,1665L1988,1667L1988,1668L1989,1669L1992,1669L1992,1668L1993,1667L1993,1666L1992,1665Z M649,1664L649,1671L650,1672L655,1672L657,1670L657,1665L656,1664Z M1868,1653L1867,1654L1867,1661L1868,1661L1869,1662L1870,1662L1871,1661L1874,1661L1875,1660L1875,1656L1874,1655L1874,1654L1873,1654L1872,1653Z M3190,1652L3189,1653L3189,1655L3190,1656L3193,1656L3193,1655L3194,1654L3192,1652Z M1897,1652L1896,1653L1896,1656L1897,1657L1898,1657L1899,1658L1901,1658L1902,1657L1902,1656L1903,1655L1903,1653L1902,1652Z M664,1651L663,1652L663,1657L664,1658L664,1659L668,1659L669,1658L669,1657L670,1656L670,1652L669,1651Z M688,1638L688,1646L690,1646L691,1647L692,1646L694,1646L696,1644L696,1642L697,1641L697,1640L695,1638Z M3254,1626L3253,1627L3253,1630L3255,1632L3257,1632L3258,1631L3259,1631L3259,1630L3260,1629L3260,1627L3259,1626Z M714,1625L714,1632L715,1633L720,1633L722,1631L722,1626L721,1625Z M357,1616L355,1618L355,1621L356,1621L357,1622L360,1622L361,1621L361,1617L360,1616Z M756,1613L755,1614L754,1614L754,1617L755,1617L756,1618L757,1617L758,1617L758,1614L757,1614Z M3279,1612L3279,1620L3285,1620L3287,1618L3287,1613L3286,1613L3285,1612Z M3305,1599L3305,1600L3304,1601L3304,1604L3305,1605L3305,1607L3311,1607L3312,1606L3312,1605L3313,1604L3313,1600L3312,1600L3311,1599Z M1444,1587L1443,1588L1442,1588L1441,1589L1441,1592L1443,1594L1449,1594L1450,1593L1450,1588L1449,1587Z M831,1587L831,1592L832,1593L835,1593L837,1591L837,1588L836,1587Z M3333,1586L3332,1587L3331,1587L3331,1593L3332,1594L3335,1594L3336,1593L3337,1593L3337,1592L3338,1591L3338,1588L3337,1587L3336,1587L3335,1586Z M369,1576L367,1578L367,1579L366,1580L366,1581L367,1582L367,1583L368,1583L369,1584L373,1584L375,1582L375,1579L374,1578L374,1576Z M3358,1575L3358,1578L3359,1579L3360,1579L3362,1577L3362,1575Z M3348,1575L3348,1578L3349,1577L3349,1575Z M1421,1573L1420,1574L1417,1574L1416,1575L1416,1578L1419,1581L1422,1581L1423,1580L1423,1579L1424,1578L1424,1575L1423,1574L1422,1574Z M885,1573L884,1574L883,1574L882,1575L882,1578L883,1579L883,1580L884,1581L887,1581L890,1578L890,1575L889,1574L887,1574L886,1573Z M961,1561L961,1562L960,1563L960,1565L961,1566L961,1567L965,1567L967,1565L967,1562L966,1561Z M3370,1560L3369,1561L3369,1567L3370,1568L3370,1569L3375,1569L3376,1568L3377,1568L3377,1567L3378,1566L3378,1561L3377,1561L3376,1560Z M3396,1548L3396,1553L3397,1554L3400,1554L3402,1552L3402,1549L3401,1548Z M384,1539L382,1541L382,1543L383,1543L384,1544L385,1544L386,1543L386,1540L385,1539Z M3409,1534L3408,1535L3408,1541L3410,1543L3413,1543L3414,1542L3415,1542L3416,1541L3416,1540L3417,1539L3417,1536L3416,1535L3415,1535L3414,1534Z M3424,1521L3422,1523L3422,1526L3423,1527L3423,1529L3424,1530L3426,1530L3427,1529L3428,1529L3428,1528L3429,1527L3429,1522L3427,1522L3426,1521Z M395,1511L393,1513L393,1514L392,1515L392,1517L394,1519L400,1519L400,1517L401,1516L401,1515L400,1514L400,1512L399,1511Z M3448,1509L3448,1515L3452,1515L3454,1513L3454,1510L3453,1509Z M3461,1496L3460,1497L3460,1501L3461,1502L3461,1503L3465,1503L3466,1502L3467,1502L3467,1501L3468,1500L3468,1498L3467,1497L3467,1496Z M408,1485L407,1486L406,1486L406,1487L405,1488L405,1492L406,1493L413,1493L413,1492L414,1491L414,1488L413,1487L413,1486L412,1485Z M3473,1483L3473,1490L3474,1491L3478,1491L3479,1490L3480,1490L3481,1489L3481,1483Z M3486,1470L3486,1477L3487,1478L3491,1478L3492,1477L3493,1477L3494,1476L3494,1471L3493,1470Z M421,1459L420,1460L419,1460L419,1461L418,1462L418,1466L419,1467L426,1467L426,1466L427,1465L427,1463L426,1462L426,1460L425,1459Z M3499,1457L3499,1464L3500,1465L3504,1465L3505,1464L3506,1464L3507,1463L3507,1458L3506,1457Z M3512,1444L3512,1451L3513,1452L3517,1452L3518,1451L3519,1451L3520,1450L3520,1445L3519,1444Z M434,1434L432,1436L432,1440L433,1441L438,1441L439,1440L439,1435L438,1434Z M3525,1431L3525,1438L3526,1439L3530,1439L3531,1438L3532,1438L3532,1437L3533,1436L3533,1432L3532,1431Z M446,1421L445,1422L445,1423L444,1424L444,1425L445,1426L446,1426L447,1427L451,1427L452,1426L452,1422L451,1421Z M3538,1418L3538,1425L3539,1425L3540,1426L3542,1426L3543,1425L3544,1425L3546,1423L3546,1419L3545,1418Z M3553,1405L3551,1407L3551,1410L3553,1412L3555,1412L3558,1409L3558,1407L3557,1406L3556,1406L3555,1405Z M461,1394L460,1395L459,1395L458,1396L458,1397L457,1398L457,1401L458,1402L465,1402L465,1395L464,1395L463,1394Z M472,1382L470,1384L470,1387L471,1388L478,1388L478,1382Z M3565,1380L3564,1381L3564,1386L3565,1387L3569,1387L3570,1386L3571,1386L3571,1385L3572,1384L3572,1381L3570,1381L3569,1380Z M3577,1366L3577,1367L3576,1368L3576,1371L3577,1372L3577,1374L3579,1374L3580,1375L3581,1374L3583,1374L3585,1372L3585,1367L3584,1366Z M486,1357L484,1359L484,1362L485,1362L486,1363L490,1363L490,1362L491,1361L491,1359L490,1358L490,1357Z M3592,1354L3591,1355L3591,1358L3594,1358L3595,1357L3595,1355L3594,1355L3593,1354Z M3592,1344L3591,1345L3594,1345L3594,1344Z M499,1342L498,1343L497,1343L496,1344L496,1346L495,1347L495,1348L496,1349L496,1350L497,1350L498,1351L503,1351L504,1350L504,1343L503,1342Z M510,1329L509,1330L509,1331L508,1332L508,1337L509,1337L510,1338L517,1338L517,1329Z M3603,1327L3603,1328L3602,1329L3602,1332L3603,1333L3603,1335L3609,1335L3610,1334L3610,1333L3611,1332L3611,1328L3610,1328L3609,1327Z M526,1316L525,1317L523,1317L522,1318L522,1319L521,1320L521,1322L522,1323L523,1323L524,1324L529,1324L530,1323L530,1317L529,1317L528,1316Z M539,1305L538,1306L537,1306L537,1309L540,1309L540,1306Z M3616,1301L3616,1302L3615,1303L3615,1307L3616,1308L3616,1309L3618,1309L3619,1310L3620,1309L3622,1309L3623,1308L3623,1307L3624,1306L3624,1303L3622,1301Z M552,1292L551,1293L550,1293L550,1296L553,1296L553,1293Z M563,1280L563,1281L562,1282L563,1283L566,1283L566,1280Z M3630,1275L3628,1277L3628,1281L3629,1282L3629,1283L3630,1283L3631,1284L3632,1284L3633,1283L3635,1283L3636,1282L3636,1281L3637,1280L3637,1277L3636,1276L3635,1276L3634,1275Z M576,1267L576,1268L575,1269L576,1270L579,1270L579,1267Z M3168,1253L3166,1255L3166,1258L3167,1259L3172,1259L3172,1254L3171,1253Z M2867,1252L2866,1253L2865,1253L2865,1254L2864,1255L2864,1258L2866,1260L2869,1260L2870,1259L2871,1259L2872,1258L2872,1255L2870,1253L2869,1253L2868,1252Z M3643,1251L3643,1254L3644,1255L3645,1254L3646,1254L3646,1251Z M590,1251L589,1252L588,1252L587,1253L587,1255L586,1256L586,1258L588,1260L593,1260L594,1259L594,1253L592,1251Z M3233,1240L3232,1241L3231,1241L3231,1243L3230,1244L3231,1245L3231,1246L3236,1246L3237,1245L3237,1242L3236,1241L3236,1240Z M2762,1240L2762,1241L2761,1242L2761,1246L2767,1246L2767,1245L2768,1244L2767,1243L2767,1241L2766,1241L2765,1240Z M602,1238L601,1239L600,1239L599,1240L599,1246L600,1247L608,1247L608,1239L607,1238Z M3284,1226L3281,1229L3281,1232L3283,1234L3288,1234L3289,1233L3289,1227L3288,1226Z M2673,1226L2672,1227L2671,1227L2670,1228L2670,1233L2671,1234L2675,1234L2676,1233L2677,1233L2677,1232L2678,1231L2677,1230L2677,1228L2676,1227L2674,1227Z M617,1225L616,1226L614,1226L613,1227L613,1228L612,1229L612,1233L613,1234L620,1234L621,1233L621,1227L620,1226L619,1226L618,1225Z M2594,1214L2593,1215L2593,1220L2598,1220L2599,1219L2599,1216L2597,1214Z M3322,1213L3320,1215L3320,1220L3321,1221L3328,1221L3328,1214L3327,1213Z M631,1213L630,1214L628,1214L626,1216L626,1220L627,1220L628,1221L632,1221L633,1220L633,1219L634,1218L633,1217L633,1214L632,1214Z M3657,1211L3655,1213L3655,1215L3656,1216L3656,1217L3657,1217L3658,1218L3659,1218L3659,1211Z M3348,1201L3347,1202L3347,1203L3346,1204L3346,1206L3348,1208L3353,1208L3354,1207L3354,1202L3353,1201Z M2515,1201L2515,1207L2516,1208L2520,1208L2522,1206L2522,1203L2520,1201Z M654,1200L652,1202L652,1207L653,1208L658,1208L658,1201L657,1200Z M3176,1198L3175,1199L3175,1203L3176,1204L3176,1205L3180,1205L3181,1204L3182,1204L3182,1203L3183,1202L3183,1200L3181,1198Z M2959,1198L2958,1199L2958,1203L2960,1205L2964,1205L2965,1204L2965,1198Z M3374,1188L3373,1189L3373,1190L3372,1191L3372,1193L3374,1195L3379,1195L3380,1194L3380,1190L3379,1189L3379,1188Z M2452,1188L2450,1190L2450,1194L2451,1194L2452,1195L2453,1195L2454,1194L2456,1194L2456,1193L2457,1192L2457,1191L2454,1188Z M668,1187L667,1188L666,1188L665,1189L665,1190L664,1191L664,1193L666,1195L672,1195L672,1194L673,1193L673,1191L672,1190L672,1188L671,1187Z M3229,1186L3228,1187L3228,1189L3229,1190L3231,1190L3232,1189L3232,1186Z M2896,1185L2895,1186L2894,1186L2894,1190L2895,1191L2899,1191L2900,1190L2900,1186L2899,1185Z M2387,1177L2386,1178L2386,1180L2387,1181L2389,1181L2390,1180L2390,1177Z M693,1175L692,1176L692,1177L691,1178L691,1181L692,1181L693,1182L696,1182L696,1180L697,1179L696,1178L696,1175Z M3401,1174L3400,1175L3399,1175L3399,1176L3398,1177L3398,1181L3399,1182L3404,1182L3404,1175L3403,1174Z M3253,1172L3253,1179L3254,1179L3255,1180L3257,1180L3258,1179L3259,1179L3260,1178L3260,1177L3261,1176L3261,1173L3260,1172Z M2322,1164L2322,1165L2321,1166L2321,1167L2322,1168L2324,1168L2326,1166L2325,1165L2325,1164Z M720,1164L719,1165L719,1167L720,1167Z M707,1164L706,1165L706,1167L707,1168L709,1168L710,1167L710,1164Z M3413,1161L3411,1163L3411,1164L3410,1165L3410,1167L3411,1168L3411,1169L3418,1169L3419,1168L3419,1163L3418,1162L3418,1161Z M3279,1159L3279,1166L3280,1167L3284,1167L3285,1166L3286,1166L3286,1165L3287,1164L3287,1160L3286,1159Z M2816,1159L2815,1160L2815,1165L2816,1166L2817,1166L2818,1167L2821,1167L2823,1165L2823,1160L2822,1159Z M2257,1151L2257,1155L2260,1155L2261,1154L2261,1152L2260,1151Z M732,1149L730,1151L730,1155L731,1156L736,1156L737,1155L737,1150L736,1149Z M3426,1148L3424,1150L3424,1151L3423,1152L3423,1155L3424,1156L3431,1156L3432,1155L3432,1150L3431,1149L3431,1148Z M2780,1147L2778,1149L2779,1150L2779,1151L2782,1151L2783,1150L2783,1148L2782,1147Z M3307,1146L3306,1147L3305,1147L3305,1151L3307,1153L3308,1153L3309,1152L3310,1152L3311,1151L3311,1150L3312,1149L3312,1148L3311,1147L3310,1147L3309,1146Z M2193,1138L2192,1139L2192,1142L2195,1142L2196,1141L2196,1139L2195,1138Z M758,1136L756,1138L756,1139L755,1140L756,1141L756,1142L757,1143L762,1143L763,1142L763,1137L762,1136Z M3439,1135L3437,1137L3437,1138L3436,1139L3436,1142L3437,1143L3444,1143L3445,1142L3445,1137L3443,1135Z M2754,1134L2752,1136L2753,1137L2753,1138L2756,1138L2757,1137L2757,1135L2756,1134Z M3318,1133L3317,1134L3317,1139L3318,1140L3318,1141L3324,1141L3326,1139L3326,1134L3325,1133Z M2129,1123L2128,1124L2127,1124L2127,1125L2126,1126L2126,1129L2127,1130L2131,1130L2133,1128L2133,1126L2131,1124L2130,1124Z M784,1123L782,1125L782,1126L781,1127L781,1128L783,1130L788,1130L789,1129L789,1124L788,1123Z M3451,1122L3449,1124L3449,1130L3452,1130L3453,1131L3455,1131L3456,1130L3458,1130L3458,1123L3457,1122Z M3332,1120L3332,1127L3333,1128L3336,1128L3338,1126L3338,1121L3337,1120Z M2727,1120L2726,1121L2725,1121L2725,1122L2724,1123L2725,1124L2725,1126L2726,1127L2731,1127L2732,1126L2732,1121L2731,1120Z M3466,1112L3466,1113L3469,1113L3468,1112Z M2063,1112L2062,1113L2062,1115L2063,1116L2066,1116L2066,1115L2067,1114L2065,1112Z M811,1112L809,1114L809,1115L810,1116L813,1116L814,1115L814,1113L813,1112Z M3346,1110L3346,1113L3349,1113L3350,1112L3350,1110Z M2701,1107L2700,1108L2699,1108L2699,1113L2700,1114L2705,1114L2706,1113L2706,1108L2705,1107Z M3466,1099L3465,1100L3465,1102L3466,1103L3469,1103L3469,1100L3468,1099Z M1998,1099L1998,1100L1997,1101L1997,1102L1998,1103L2001,1103L2002,1102L2002,1100L2001,1099Z M3359,1097L3359,1100L3362,1100L3363,1099L3363,1097Z M849,1096L848,1097L847,1097L846,1098L846,1100L845,1101L845,1102L846,1103L846,1104L854,1104L854,1098L852,1096Z M2674,1094L2672,1096L2672,1099L2675,1102L2679,1102L2680,1101L2680,1094Z M3372,1084L3372,1087L3375,1087L3376,1086L3376,1085L3375,1084Z M1920,1084L1919,1085L1919,1091L1925,1091L1926,1090L1926,1086L1924,1084Z M2648,1081L2646,1083L2646,1086L2647,1087L2647,1088L2648,1089L2653,1089L2654,1088L2654,1087L2655,1086L2655,1082L2654,1081Z M3479,1073L3478,1074L3478,1076L3479,1077L3482,1077L3482,1074L3481,1073Z M3384,1069L3383,1070L3382,1070L3382,1074L3384,1076L3388,1076L3390,1074L3390,1073L3391,1072L3391,1071L3390,1070L3388,1070L3387,1069Z M2624,1068L2623,1069L2622,1069L2621,1070L2621,1073L2622,1074L2622,1075L2624,1075L2625,1076L2626,1076L2627,1075L2628,1075L2628,1069L2627,1068Z M966,1060L965,1061L965,1064L969,1064L969,1061L968,1060Z M1765,1059L1764,1060L1764,1065L1769,1065L1770,1064L1770,1061L1768,1059Z M3396,1055L3395,1056L3395,1062L3397,1064L3400,1064L3401,1063L3402,1063L3404,1061L3404,1056L3403,1055Z M2598,1055L2597,1056L2596,1056L2595,1057L2595,1060L2597,1062L2598,1062L2599,1063L2600,1063L2601,1062L2602,1062L2602,1059L2603,1058L2602,1057L2602,1056L2601,1055Z M1675,1047L1674,1048L1674,1051L1677,1051L1678,1050L1678,1048L1677,1048L1676,1047Z M1030,1045L1028,1047L1028,1052L1035,1052L1035,1046L1034,1045Z M3409,1043L3409,1048L3410,1049L3413,1049L3415,1047L3415,1044L3414,1043Z M2572,1042L2571,1043L2570,1043L2569,1044L2569,1047L2571,1049L2572,1049L2573,1050L2574,1050L2575,1049L2576,1049L2576,1047L2577,1046L2577,1044L2575,1042Z M3493,1034L3492,1035L3491,1035L3491,1038L3495,1038L3495,1035L3494,1034Z M1108,1033L1106,1035L1106,1038L1107,1039L1112,1039L1112,1034L1111,1033Z M2559,1031L2558,1032L2558,1033L2559,1034L2560,1033L2560,1032Z M2546,1031L2545,1032L2545,1033L2547,1035L2548,1035L2550,1033L2550,1032L2549,1031Z M2520,1018L2519,1019L2519,1020L2521,1022L2522,1022L2524,1020L2524,1019L2523,1018Z M3422,1016L3421,1017L3421,1023L3422,1024L3423,1024L3424,1025L3425,1024L3428,1024L3429,1023L3429,1021L3430,1020L3430,1018L3429,1017L3428,1017L3427,1016Z M2506,1004L2506,1005L2505,1006L2505,1007L2506,1008L2506,1009L2507,1010L2508,1010L2509,1009L2509,1007L2510,1006L2509,1005L2509,1004Z M3436,990L3435,991L3434,991L3434,997L3435,998L3440,998L3442,996L3442,991L3440,991L3439,990Z M2480,990L2479,991L2478,991L2478,992L2477,993L2477,995L2478,996L2478,997L2479,998L2480,998L2481,999L2484,999L2485,998L2486,998L2486,991L2485,990Z M2454,978L2452,980L2452,981L2453,982L2453,983L2455,985L2458,985L2460,983L2460,978Z M3449,966L3448,967L3448,968L3449,969L3449,970L3451,970L3453,968L3453,967L3452,966Z M2429,965L2427,967L2427,969L2429,971L2433,971L2433,970L2434,969L2434,966L2433,965Z M2414,952L2414,958L2415,959L2419,959L2419,958L2420,957L2420,952Z M2390,938L2389,939L2388,939L2387,940L2387,945L2388,946L2389,946L2390,947L2394,947L2395,946L2395,944L2396,943L2396,940L2394,938Z M2363,926L2362,927L2362,931L2364,933L2368,933L2369,932L2369,926Z M3657,915L3655,917L3655,922L3656,923L3659,923L3659,915Z M2352,914L2351,915L2351,917L2352,917Z M2339,914L2338,915L2338,917L2339,918L2341,918L2342,917L2342,914Z M3462,913L3461,914L3461,915L3460,916L3461,917L3461,919L3465,919L3467,917L3467,914L3466,914L3465,913Z M2326,900L2325,901L2324,901L2324,905L2325,906L2327,906L2328,905L2328,901L2327,900Z M2298,887L2297,888L2297,893L2298,894L2299,894L2300,895L2302,895L2303,894L2304,894L2304,893L2305,892L2305,888L2304,887Z M3643,877L3642,878L3642,884L3647,884L3649,882L3649,880L3648,879L3648,878L3647,878L3646,877Z M2274,874L2273,875L2272,875L2272,879L2273,880L2274,880L2275,881L2276,881L2277,880L2278,880L2278,875L2277,874Z M3492,866L3491,867L3491,869L3492,870L3494,870L3495,869L3495,866Z M3631,863L3630,864L3629,864L3629,865L3628,866L3628,869L3629,870L3635,870L3637,868L3637,866L3635,864L3633,864L3632,863Z M2262,861L2261,862L2260,862L2259,863L2259,865L2260,866L2260,867L2263,867L2263,862Z M3522,860L3521,861L3524,864L3524,868L3521,871L3520,871L3519,872L3512,872L3511,873L3511,881L3510,882L3510,884L3506,888L3502,888L3499,885L3498,886L3498,932L3499,933L3499,930L3500,929L3500,928L3502,926L3503,926L3504,925L3505,926L3506,926L3508,928L3508,929L3509,930L3509,934L3510,935L3510,938L3511,939L3511,1050L3510,1051L3510,1052L3509,1053L3509,1054L3506,1057L3505,1057L3504,1058L3503,1057L3502,1057L3499,1054L3498,1054L3498,1072L3499,1073L3499,1077L3498,1078L3498,1090L3497,1091L3497,1092L3496,1093L3495,1093L3493,1095L3489,1095L3488,1094L3487,1094L3486,1093L3486,1104L3485,1105L3485,1116L3484,1117L3484,1118L3483,1119L3482,1119L3481,1120L3480,1120L3479,1121L3476,1121L3474,1119L3473,1119L3473,1121L3474,1122L3474,1123L3475,1124L3475,1126L3474,1127L3474,1129L3473,1130L3473,1131L3471,1133L3471,1134L3470,1135L3470,1136L3465,1141L3463,1141L3458,1146L3458,1149L3457,1150L3457,1152L3454,1155L3453,1155L3452,1156L3449,1156L3448,1157L3447,1157L3445,1159L3445,1161L3444,1162L3444,1165L3441,1168L3440,1168L3439,1169L3436,1169L3435,1170L3434,1170L3432,1172L3432,1175L3431,1176L3431,1178L3427,1182L3424,1182L3423,1183L3421,1183L3420,1184L3419,1184L3417,1186L3416,1186L3415,1187L3414,1187L3412,1189L3412,1190L3411,1191L3411,1192L3407,1196L3406,1196L3405,1197L3404,1197L3403,1198L3399,1198L3398,1197L3394,1197L3393,1198L3393,1200L3394,1201L3394,1204L3393,1205L3393,1206L3391,1208L3390,1208L3389,1209L3382,1209L3381,1210L3379,1210L3378,1211L3374,1211L3373,1210L3364,1210L3367,1213L3367,1214L3368,1215L3368,1217L3367,1218L3367,1219L3366,1220L3365,1220L3364,1221L3363,1221L3362,1222L3356,1222L3355,1223L3351,1223L3350,1224L3349,1223L3334,1223L3335,1224L3336,1224L3338,1226L3338,1227L3339,1228L3339,1230L3336,1233L3335,1233L3334,1234L3333,1234L3332,1235L3330,1235L3329,1236L3296,1236L3297,1236L3301,1240L3301,1243L3297,1247L3295,1247L3294,1248L3291,1248L3290,1249L3248,1249L3249,1249L3252,1252L3252,1253L3253,1254L3253,1255L3252,1256L3252,1257L3250,1259L3249,1259L3248,1260L3246,1260L3245,1261L3239,1261L3238,1262L3182,1262L3183,1262L3184,1263L3185,1263L3188,1266L3188,1269L3185,1272L3184,1272L3183,1273L3180,1273L3179,1274L3174,1274L3173,1275L3163,1275L3162,1274L3136,1274L3135,1275L2919,1275L2918,1274L2875,1274L2874,1275L2864,1275L2863,1274L2860,1274L2859,1273L2857,1273L2856,1272L2855,1272L2852,1269L2852,1266L2855,1263L2856,1263L2857,1262L2858,1262L2760,1262L2759,1261L2755,1261L2754,1260L2751,1260L2750,1259L2749,1259L2748,1258L2747,1258L2745,1256L2745,1253L2748,1250L2749,1250L2750,1249L2752,1249L2669,1249L2668,1248L2665,1248L2664,1247L2662,1247L2661,1246L2660,1246L2658,1244L2658,1243L2657,1242L2657,1241L2658,1240L2658,1239L2660,1237L2661,1237L2662,1236L2663,1236L2591,1236L2590,1235L2585,1235L2584,1234L2582,1234L2581,1233L2580,1233L2577,1230L2577,1227L2580,1224L2581,1224L2582,1223L2583,1223L2513,1223L2512,1222L2509,1222L2508,1221L2506,1221L2505,1220L2504,1220L2502,1218L2502,1217L2501,1216L2501,1215L2502,1214L2502,1213L2504,1211L2505,1211L2506,1210L2507,1210L2448,1210L2447,1209L2441,1209L2440,1208L2438,1208L2435,1205L2435,1204L2434,1203L2434,1202L2435,1201L2435,1200L2437,1198L2438,1198L2439,1197L2440,1197L2382,1197L2381,1196L2373,1196L2372,1195L2371,1195L2370,1194L2369,1194L2368,1193L2367,1193L2365,1191L2365,1189L2368,1186L2369,1186L2371,1184L2372,1184L2316,1184L2315,1183L2308,1183L2307,1182L2306,1182L2305,1181L2304,1181L2303,1180L2302,1180L2300,1178L2300,1176L2303,1173L2304,1173L2305,1172L2306,1172L2307,1171L2251,1171L2250,1170L2244,1170L2243,1169L2241,1169L2239,1167L2238,1167L2237,1166L2236,1166L2235,1165L2235,1163L2237,1161L2238,1161L2240,1159L2241,1159L2242,1158L2184,1158L2183,1157L2178,1157L2176,1155L2175,1155L2172,1152L2172,1150L2176,1146L2176,1145L2122,1145L2121,1144L2117,1144L2116,1143L2114,1143L2111,1140L2111,1136L2114,1133L2114,1132L2055,1132L2054,1131L2049,1131L2048,1130L2047,1130L2046,1129L2045,1129L2044,1128L2043,1128L2041,1126L2041,1124L2043,1122L2044,1122L2046,1120L2047,1120L2046,1120L2045,1119L1990,1119L1989,1118L1984,1118L1983,1117L1982,1117L1981,1116L1977,1116L1976,1115L1973,1115L1971,1113L1971,1111L1973,1109L1975,1109L1976,1108L1980,1108L1981,1107L1982,1107L1974,1107L1973,1106L1924,1106L1923,1107L1920,1107L1919,1106L1915,1106L1914,1105L1912,1105L1911,1104L1909,1104L1906,1101L1906,1097L1909,1094L1910,1094L1907,1094L1906,1093L1841,1093L1840,1092L1838,1092L1837,1091L1833,1091L1832,1090L1831,1090L1828,1087L1828,1085L1831,1082L1832,1082L1833,1081L1836,1081L1829,1081L1828,1080L1768,1080L1767,1081L1765,1081L1764,1080L1759,1080L1758,1079L1755,1079L1754,1078L1752,1078L1751,1077L1750,1077L1748,1075L1748,1074L1747,1073L1748,1072L1748,1071L1750,1069L1751,1069L1752,1068L1753,1068L1738,1068L1737,1067L1665,1067L1664,1066L1660,1066L1659,1065L1657,1065L1656,1064L1655,1064L1654,1063L1651,1063L1649,1061L1649,1059L1650,1058L1651,1058L1652,1057L1655,1057L1656,1056L1657,1056L1658,1055L1659,1055L1646,1055L1645,1054L1543,1054L1542,1053L1540,1053L1539,1052L1537,1052L1536,1051L1535,1051L1534,1050L1533,1050L1532,1049L1532,1046L1534,1044L1535,1044L1536,1043L1537,1043L1538,1042L1539,1042L1505,1042L1504,1041L1144,1041L1143,1042L1122,1042L1124,1042L1128,1046L1128,1049L1126,1051L1125,1051L1124,1052L1123,1052L1122,1053L1119,1053L1118,1054L1113,1054L1112,1055L1107,1055L1106,1054L1050,1054L1049,1055L1043,1055L1045,1055L1048,1058L1048,1062L1045,1065L1044,1065L1043,1066L1040,1066L1039,1067L1035,1067L1034,1068L1028,1068L1027,1067L991,1067L990,1068L984,1068L985,1068L989,1072L989,1074L985,1078L984,1078L983,1079L981,1079L980,1080L943,1080L942,1081L936,1081L938,1081L939,1082L940,1082L943,1085L943,1087L940,1090L939,1090L938,1091L935,1091L934,1092L932,1092L931,1093L901,1093L900,1094L896,1094L897,1094L898,1095L899,1095L902,1098L902,1100L899,1103L898,1103L897,1104L896,1104L895,1105L894,1105L893,1106L863,1106L862,1107L860,1107L861,1107L864,1110L864,1114L861,1117L860,1117L859,1118L857,1118L856,1119L854,1119L853,1120L847,1120L846,1119L830,1119L829,1120L832,1123L832,1127L828,1131L826,1131L825,1132L813,1132L812,1133L809,1133L808,1132L801,1132L800,1133L802,1135L802,1136L803,1137L803,1139L802,1140L802,1141L800,1143L798,1143L797,1144L793,1144L792,1145L789,1145L788,1146L781,1146L780,1145L774,1145L774,1146L777,1149L777,1152L776,1153L776,1154L774,1156L773,1156L772,1157L766,1157L765,1158L763,1158L762,1159L756,1159L755,1158L748,1158L748,1159L749,1159L750,1160L750,1161L751,1162L751,1166L748,1169L747,1169L746,1170L740,1170L739,1171L737,1171L736,1172L728,1172L727,1171L726,1171L726,1173L727,1174L727,1175L728,1176L728,1178L727,1179L727,1180L724,1183L723,1183L722,1184L710,1184L709,1185L702,1185L705,1188L705,1190L704,1191L704,1192L701,1195L700,1195L698,1197L686,1197L685,1198L684,1198L684,1199L685,1200L685,1205L682,1208L680,1208L679,1209L675,1209L674,1210L672,1210L671,1211L669,1211L668,1212L664,1212L663,1211L664,1212L664,1213L665,1214L665,1216L664,1217L664,1218L659,1223L658,1223L657,1224L653,1224L652,1223L647,1223L647,1227L648,1228L648,1229L647,1230L647,1231L644,1234L643,1234L642,1235L636,1235L635,1236L634,1236L633,1237L633,1238L632,1239L632,1241L631,1242L631,1243L628,1246L627,1246L626,1247L624,1247L623,1248L622,1248L619,1251L618,1251L617,1252L617,1253L615,1255L615,1256L610,1261L609,1261L607,1263L606,1263L605,1264L603,1264L602,1265L599,1265L599,1269L598,1270L598,1271L593,1276L592,1276L591,1277L587,1277L585,1275L584,1275L584,1276L585,1277L585,1278L586,1279L586,1282L585,1283L585,1284L580,1289L578,1289L577,1290L574,1290L572,1288L571,1288L571,1289L573,1291L573,1295L572,1296L572,1297L567,1302L565,1302L564,1303L561,1303L559,1301L558,1301L558,1302L560,1304L560,1308L559,1309L559,1310L554,1315L552,1315L551,1316L549,1316L548,1315L547,1315L546,1314L545,1314L545,1315L547,1317L547,1321L546,1322L546,1323L541,1328L540,1328L539,1329L535,1329L535,1333L534,1334L534,1335L533,1336L533,1337L531,1339L531,1340L526,1345L525,1345L523,1347L522,1347L522,1348L519,1351L519,1352L518,1353L518,1354L517,1355L517,1356L516,1357L516,1358L513,1361L510,1361L509,1362L508,1362L506,1364L506,1373L505,1374L505,1375L502,1378L493,1378L493,1381L494,1382L494,1387L493,1388L493,1389L488,1394L487,1394L486,1395L484,1395L483,1394L482,1394L481,1393L481,1392L481,1393L482,1394L482,1399L481,1400L481,1402L480,1403L480,1404L479,1405L479,1410L478,1411L478,1412L475,1415L468,1415L467,1416L467,1420L468,1421L468,1426L467,1427L467,1428L465,1430L465,1431L463,1433L462,1433L461,1434L460,1434L459,1435L458,1435L457,1434L456,1434L456,1438L455,1439L455,1441L454,1442L454,1444L453,1445L453,1451L449,1455L445,1455L444,1454L443,1454L442,1453L442,1452L441,1452L441,1457L442,1458L442,1467L441,1468L441,1469L440,1470L440,1472L439,1473L439,1475L436,1478L432,1478L429,1475L429,1474L428,1474L428,1484L429,1485L429,1493L428,1494L428,1495L427,1496L427,1499L426,1500L426,1501L423,1504L419,1504L416,1501L416,1500L415,1500L415,1510L416,1511L416,1518L415,1519L415,1522L414,1523L414,1526L413,1527L413,1528L410,1531L406,1531L403,1528L403,1527L402,1528L402,1537L403,1538L403,1543L402,1544L402,1556L401,1557L401,1558L398,1561L397,1561L396,1562L394,1562L393,1561L392,1561L390,1559L389,1560L389,1575L390,1576L390,1583L389,1584L389,1587L388,1588L388,1590L387,1591L387,1592L384,1595L383,1595L382,1596L381,1596L377,1592L377,1591L377,1594L376,1595L376,1615L377,1616L377,1622L376,1623L376,1629L375,1630L375,1633L374,1634L374,1635L372,1637L371,1637L370,1638L368,1638L367,1637L366,1637L364,1635L364,1634L364,1638L363,1639L363,1667L364,1668L364,1674L363,1675L363,1680L362,1681L362,1685L360,1687L360,1688L359,1689L358,1689L357,1690L355,1690L351,1686L351,1685L351,1701L350,1702L350,1778L349,1779L349,1781L348,1782L348,1784L347,1785L347,1786L344,1789L344,1856L345,1856L347,1858L347,1859L348,1860L348,1861L349,1862L349,1865L350,1866L350,1871L351,1872L351,1878L350,1879L350,1935L351,1936L351,1951L351,1950L354,1947L355,1947L356,1946L357,1947L358,1947L361,1950L361,1951L362,1952L362,1955L363,1956L363,1962L364,1963L364,1969L363,1970L363,1991L364,1992L364,1997L364,1996L365,1995L365,1994L368,1991L370,1991L373,1994L373,1995L374,1996L374,1997L375,1998L375,1999L376,2000L376,2014L377,2015L377,2023L376,2024L376,2026L377,2027L379,2025L385,2025L387,2027L387,2028L388,2029L388,2032L389,2033L389,2038L390,2039L390,2040L391,2040L392,2041L393,2041L394,2042L395,2042L397,2044L397,2046L395,2048L394,2048L393,2049L392,2049L391,2050L397,2050L398,2051L407,2051L408,2050L411,2050L412,2051L417,2051L418,2052L421,2052L422,2053L424,2053L425,2054L426,2054L429,2057L429,2059L426,2062L425,2062L424,2063L423,2063L428,2063L429,2064L440,2064L441,2063L446,2063L444,2063L443,2062L442,2062L439,2059L439,2057L442,2054L443,2054L444,2053L446,2053L447,2052L450,2052L451,2051L479,2051L480,2050L481,2050L479,2048L479,2042L481,2040L482,2040L483,2039L491,2039L492,2038L492,2030L493,2029L493,2027L494,2026L494,2025L496,2023L497,2023L498,2022L500,2022L501,2023L502,2023L504,2025L504,2026L505,2025L505,1846L506,1845L506,1843L507,1842L507,1839L508,1838L508,1837L511,1834L513,1834L516,1837L516,1839L517,1840L517,1842L517,1840L518,1839L518,1815L517,1814L517,1807L518,1806L518,1804L519,1803L519,1801L520,1800L520,1799L523,1796L527,1796L530,1799L530,1800L530,1798L531,1797L531,1790L530,1789L530,1781L531,1780L531,1774L532,1773L532,1770L535,1767L541,1767L543,1769L543,1767L544,1766L543,1765L543,1762L542,1761L542,1757L543,1756L543,1754L544,1753L544,1752L545,1751L545,1750L550,1745L553,1745L554,1744L555,1744L555,1743L556,1742L556,1741L557,1740L557,1731L561,1727L567,1727L568,1728L569,1728L569,1724L568,1723L568,1718L569,1717L569,1716L572,1713L573,1713L574,1712L576,1712L577,1711L578,1711L579,1712L580,1712L582,1714L582,1713L581,1712L581,1711L580,1710L580,1707L581,1706L581,1705L582,1704L582,1703L584,1701L585,1701L586,1700L587,1700L588,1699L592,1699L593,1700L594,1700L595,1701L595,1700L594,1699L594,1698L593,1697L593,1694L594,1693L594,1692L595,1691L595,1690L597,1688L598,1688L599,1687L600,1687L601,1686L605,1686L606,1687L607,1687L608,1688L608,1687L607,1686L607,1685L606,1684L606,1681L607,1680L607,1679L608,1678L608,1677L610,1675L611,1675L612,1674L613,1674L614,1673L616,1673L617,1674L619,1674L620,1675L622,1675L622,1671L621,1670L621,1669L622,1668L622,1666L625,1663L634,1663L637,1660L637,1656L638,1655L638,1654L640,1652L641,1652L642,1651L644,1651L645,1650L647,1650L648,1649L649,1649L650,1648L651,1648L652,1647L654,1647L655,1646L656,1646L656,1644L657,1643L657,1642L658,1641L658,1640L661,1637L662,1637L663,1636L665,1636L666,1635L667,1636L677,1636L678,1635L679,1635L679,1634L678,1633L678,1629L682,1625L684,1625L685,1624L686,1624L687,1623L689,1623L690,1622L694,1622L695,1623L708,1623L706,1623L703,1620L703,1615L705,1613L706,1613L707,1612L709,1612L710,1611L712,1611L713,1610L739,1610L735,1606L735,1603L739,1599L740,1599L741,1598L751,1598L752,1597L776,1597L775,1597L774,1596L772,1596L769,1593L769,1590L771,1588L772,1588L773,1587L775,1587L776,1586L777,1586L778,1585L781,1585L782,1584L785,1584L786,1585L791,1585L792,1584L820,1584L819,1584L815,1580L815,1578L816,1577L816,1576L818,1574L819,1574L820,1573L822,1573L823,1572L829,1572L830,1571L839,1571L840,1572L862,1572L863,1571L874,1571L873,1571L872,1570L871,1570L870,1569L870,1568L869,1567L869,1564L872,1561L873,1561L874,1560L877,1560L878,1559L881,1559L882,1558L890,1558L891,1559L929,1559L930,1558L951,1558L949,1558L947,1556L946,1556L945,1555L945,1554L944,1553L944,1552L947,1549L948,1549L949,1548L950,1548L951,1547L954,1547L955,1546L960,1546L961,1545L966,1545L967,1546L1308,1546L1309,1547L1311,1547L1312,1548L1313,1548L1314,1549L1315,1549L1316,1550L1317,1550L1318,1551L1318,1554L1315,1557L1313,1557L1312,1558L1311,1558L1378,1558L1379,1559L1414,1559L1415,1558L1424,1558L1425,1559L1431,1559L1432,1560L1434,1560L1437,1563L1437,1564L1438,1565L1438,1567L1437,1568L1437,1569L1435,1571L1440,1571L1441,1570L1443,1570L1444,1569L1447,1569L1448,1570L1449,1570L1455,1576L1455,1577L1456,1578L1456,1579L1458,1581L1459,1581L1465,1587L1465,1595L1464,1596L1464,1598L1465,1599L1465,3309L1464,3310L1464,3322L1465,3323L1465,3333L1464,3334L1464,3339L1463,3340L1463,3343L1460,3346L1455,3346L1452,3343L1452,3350L1453,3351L1453,3357L1452,3358L1452,3359L1451,3360L1451,3361L1450,3362L1450,3364L1449,3365L1449,3366L1445,3370L1443,3370L1442,3371L1440,3371L1438,3373L1438,3374L1437,3375L1437,3378L1436,3379L1436,3380L1435,3381L1435,3382L1434,3383L1433,3383L1432,3384L1429,3384L1428,3385L1426,3385L1422,3389L1422,3391L1421,3392L1421,3393L1418,3396L1417,3396L1416,3397L1415,3397L1414,3398L1413,3398L1412,3399L1411,3399L1410,3400L1403,3400L1402,3399L1392,3399L1396,3403L1396,3407L1393,3410L1391,3410L1390,3411L1388,3411L1387,3412L1385,3412L1384,3413L1379,3413L1378,3412L1360,3412L1360,3413L1363,3416L1363,3419L1362,3420L1362,3421L1359,3424L1357,3424L1356,3425L1347,3425L1346,3426L1346,3431L1345,3432L1345,3433L1343,3435L1341,3435L1340,3436L1339,3435L1336,3435L1335,3436L1335,3448L1334,3449L1334,3451L1333,3452L1333,3453L1329,3457L1326,3457L1323,3454L1323,3453L1322,3452L1322,3519L1323,3518L1323,3517L1326,3514L1329,3514L1330,3515L1331,3515L1332,3516L1332,3517L1333,3518L1333,3520L1334,3521L1334,3526L1335,3527L1335,3530L1336,3531L1336,3539L1337,3538L1342,3538L1343,3539L1345,3539L1346,3540L1347,3540L1348,3541L1349,3541L1350,3542L1351,3542L1352,3543L1353,3543L1354,3544L1355,3544L1356,3545L1356,3546L1357,3547L2197,3547L2197,3546L2201,3542L2202,3542L2203,3541L2205,3541L2206,3540L2215,3540L2215,3538L2214,3537L2214,3533L2215,3532L2215,3529L2216,3528L2216,3527L2217,3526L2217,3525L2221,3521L2223,3521L2226,3524L2226,3525L2227,3526L2227,3523L2228,3522L2228,3449L2227,3448L2227,3446L2226,3447L2226,3448L2225,3449L2223,3449L2222,3450L2221,3450L2220,3449L2219,3449L2217,3447L2217,3445L2216,3444L2216,3440L2215,3439L2215,3437L2214,3436L2214,3434L2213,3433L2213,3427L2207,3427L2206,3426L2204,3426L2203,3425L2202,3425L2201,3424L2196,3424L2195,3423L2193,3423L2190,3420L2190,3416L2191,3415L2191,3414L2192,3413L2193,3413L2193,3412L2165,3412L2164,3411L2163,3411L2162,3410L2160,3410L2159,3409L2158,3409L2155,3406L2155,3403L2157,3401L2158,3401L2159,3400L2160,3400L2161,3399L2147,3399L2146,3400L2139,3400L2138,3399L2137,3399L2136,3398L2131,3398L2130,3397L2129,3397L2126,3394L2126,3388L2125,3387L2125,3386L2116,3386L2115,3385L2114,3385L2112,3383L2112,3382L2111,3381L2111,3376L2112,3375L2112,3374L2111,3373L2102,3373L2099,3370L2099,3369L2098,3368L2098,3358L2097,3357L2097,3350L2098,3349L2098,3346L2094,3350L2091,3350L2086,3345L2086,3342L2085,3341L2085,3284L2085,3285L2084,3286L2084,3287L2083,3288L2083,3289L2080,3292L2078,3292L2077,3291L2077,3290L2076,3289L2076,3288L2075,3287L2075,3286L2074,3285L2074,3283L2073,3282L2073,3277L2072,3276L2072,3139L2073,3138L2073,3136L2074,3135L2074,3133L2079,3128L2080,3128L2084,3132L2084,3133L2085,3134L2085,1799L2085,1801L2084,1802L2084,1803L2080,1807L2079,1807L2075,1803L2075,1802L2074,1801L2074,1799L2073,1798L2073,1793L2072,1792L2072,1764L2069,1767L2064,1767L2061,1764L2061,1763L2060,1762L2060,1754L2057,1751L2055,1751L2054,1750L2053,1750L2051,1748L2051,1747L2050,1746L2050,1743L2048,1741L2038,1741L2037,1740L2036,1740L2032,1736L2032,1735L2031,1734L2031,1733L2032,1732L2032,1731L2034,1729L2034,1728L2010,1728L2009,1727L2007,1727L2006,1726L2003,1726L2002,1725L2001,1725L1998,1722L1998,1719L2000,1717L2001,1717L2002,1716L2004,1716L2005,1715L1966,1715L1965,1714L1960,1714L1959,1713L1958,1713L1956,1711L1956,1710L1955,1709L1955,1707L1956,1706L1956,1705L1958,1703L1958,1702L1937,1702L1936,1703L1933,1703L1932,1702L1929,1702L1928,1701L1923,1701L1922,1700L1921,1700L1918,1697L1918,1693L1921,1690L1920,1689L1893,1689L1892,1688L1891,1688L1890,1687L1889,1687L1886,1684L1886,1680L1889,1677L1888,1676L1875,1676L1874,1677L1867,1677L1866,1676L1864,1676L1863,1675L1861,1675L1860,1674L1859,1674L1856,1671L1856,1667L1859,1664L1860,1664L1857,1664L1856,1663L1850,1663L1849,1664L1841,1664L1840,1663L1838,1663L1837,1662L1835,1662L1834,1661L1833,1661L1830,1658L1830,1654L1833,1651L1834,1651L1831,1651L1830,1650L1825,1650L1824,1651L1820,1651L1819,1652L1818,1652L1817,1651L1815,1651L1814,1650L1813,1650L1812,1649L1811,1649L1810,1648L1809,1648L1807,1646L1807,1645L1806,1644L1806,1639L1805,1639L1804,1638L1802,1638L1801,1637L1790,1637L1788,1635L1787,1635L1785,1633L1784,1633L1783,1632L1781,1632L1780,1631L1779,1631L1774,1626L1774,1624L1775,1623L1776,1623L1777,1622L1781,1622L1782,1623L1801,1623L1802,1624L1814,1624L1815,1625L1817,1625L1818,1626L1819,1626L1820,1627L1821,1627L1823,1629L1823,1631L1821,1633L1820,1633L1819,1634L1818,1634L1817,1635L1816,1635L1815,1636L1904,1636L1905,1637L1910,1637L1911,1638L1913,1638L1914,1639L1915,1639L1916,1640L1917,1640L1918,1641L1918,1642L1919,1643L1919,1644L1915,1648L1914,1648L1913,1649L1912,1649L1996,1649L1997,1650L2004,1650L2005,1651L2007,1651L2008,1652L2010,1652L2011,1653L2015,1653L2016,1654L2017,1654L2019,1656L2019,1657L2017,1659L2015,1659L2014,1660L2011,1660L2010,1661L2008,1661L2007,1662L2006,1662L2099,1662L2100,1663L2102,1663L2103,1664L2105,1664L2106,1665L2107,1665L2109,1667L2109,1668L2110,1669L2110,1670L2106,1674L2105,1674L2104,1675L2204,1675L2205,1676L2212,1676L2213,1677L2215,1677L2216,1678L2217,1678L2218,1679L2220,1679L2221,1680L2222,1680L2223,1681L2223,1683L2221,1685L2220,1685L2219,1686L2217,1686L2216,1687L2215,1687L2214,1688L2213,1688L2341,1688L2342,1689L2345,1689L2346,1690L2348,1690L2349,1691L2351,1691L2352,1692L2353,1692L2354,1693L2354,1694L2355,1695L2355,1696L2352,1699L2351,1699L2350,1700L2349,1700L2348,1701L2347,1701L2566,1701L2567,1702L2569,1702L2570,1703L2571,1703L2572,1704L2573,1704L2576,1707L2576,1709L2575,1710L2575,1711L2574,1712L2573,1712L2571,1714L2744,1714L2743,1713L2742,1713L2741,1712L2740,1712L2739,1711L2738,1711L2737,1710L2737,1709L2736,1708L2740,1704L2742,1704L2743,1703L2745,1703L2746,1702L2749,1702L2750,1701L2935,1701L2934,1700L2933,1700L2930,1697L2930,1694L2933,1691L2934,1691L2935,1690L2936,1690L2937,1689L2939,1689L2940,1688L3023,1688L3022,1688L3020,1686L3019,1686L3018,1685L3018,1684L3017,1683L3017,1681L3020,1678L3021,1678L3022,1677L3024,1677L3025,1676L3030,1676L3031,1675L3084,1675L3082,1673L3081,1673L3079,1671L3079,1668L3082,1665L3083,1665L3084,1664L3085,1664L3086,1663L3094,1663L3095,1662L3134,1662L3133,1662L3132,1661L3131,1661L3127,1657L3127,1656L3128,1655L3128,1654L3129,1653L3130,1653L3131,1652L3132,1652L3133,1651L3134,1651L3135,1650L3137,1650L3138,1649L3175,1649L3174,1649L3170,1645L3170,1642L3174,1638L3175,1638L3176,1637L3185,1637L3186,1636L3211,1636L3210,1636L3209,1635L3207,1635L3204,1632L3204,1629L3207,1626L3209,1626L3210,1625L3212,1625L3213,1624L3215,1624L3216,1623L3241,1623L3238,1620L3238,1615L3241,1612L3242,1612L3243,1611L3251,1611L3252,1610L3273,1610L3272,1610L3268,1606L3268,1603L3271,1600L3272,1600L3273,1599L3274,1599L3275,1598L3277,1598L3278,1597L3281,1597L3282,1596L3283,1596L3284,1597L3298,1597L3297,1597L3294,1594L3294,1589L3296,1587L3297,1587L3298,1586L3300,1586L3301,1585L3303,1585L3304,1584L3306,1584L3307,1583L3311,1583L3312,1584L3320,1584L3319,1584L3318,1583L3318,1582L3317,1581L3317,1576L3320,1573L3322,1573L3323,1572L3329,1572L3330,1571L3334,1571L3335,1570L3337,1570L3338,1571L3342,1571L3342,1570L3341,1569L3341,1568L3340,1567L3340,1565L3341,1564L3341,1562L3344,1559L3346,1559L3347,1558L3350,1558L3351,1559L3355,1559L3356,1558L3358,1558L3359,1557L3360,1557L3361,1556L3360,1555L3360,1553L3361,1552L3361,1551L3365,1547L3366,1547L3367,1546L3368,1546L3369,1545L3370,1545L3371,1544L3377,1544L3378,1545L3383,1545L3381,1543L3381,1542L3380,1541L3380,1539L3381,1538L3381,1536L3383,1534L3384,1534L3385,1533L3394,1533L3395,1532L3396,1532L3396,1531L3397,1530L3397,1527L3398,1526L3398,1525L3400,1523L3401,1523L3402,1522L3403,1522L3404,1521L3405,1521L3406,1520L3407,1520L3408,1519L3409,1519L3410,1518L3411,1518L3412,1517L3414,1517L3415,1516L3416,1516L3416,1513L3417,1512L3417,1511L3421,1507L3422,1507L3423,1506L3425,1506L3426,1505L3427,1505L3428,1506L3430,1506L3431,1507L3432,1507L3433,1506L3433,1502L3432,1501L3432,1500L3433,1499L3433,1498L3436,1495L3437,1495L3438,1494L3446,1494L3446,1486L3450,1482L3457,1482L3458,1481L3459,1481L3460,1480L3460,1479L3461,1478L3461,1474L3464,1471L3465,1471L3466,1470L3469,1470L3470,1469L3471,1469L3472,1468L3472,1467L3473,1466L3473,1463L3474,1462L3474,1461L3477,1458L3478,1458L3479,1457L3482,1457L3483,1456L3484,1456L3485,1455L3485,1454L3486,1453L3486,1450L3487,1449L3487,1448L3490,1445L3491,1445L3492,1444L3495,1444L3496,1443L3497,1443L3498,1442L3498,1441L3499,1440L3499,1437L3500,1436L3500,1435L3503,1432L3504,1432L3505,1431L3508,1431L3509,1430L3510,1430L3511,1429L3511,1428L3512,1427L3512,1424L3513,1423L3513,1422L3516,1419L3518,1419L3519,1418L3521,1418L3522,1417L3523,1417L3523,1416L3524,1415L3524,1413L3525,1412L3525,1409L3526,1408L3526,1407L3527,1406L3528,1406L3529,1405L3535,1405L3536,1404L3536,1402L3537,1401L3536,1400L3536,1396L3537,1395L3537,1393L3539,1391L3540,1391L3541,1390L3545,1390L3546,1391L3549,1391L3549,1388L3548,1387L3548,1381L3549,1380L3549,1379L3554,1374L3556,1374L3557,1373L3558,1373L3559,1372L3559,1370L3560,1369L3560,1368L3561,1367L3561,1366L3562,1365L3562,1364L3563,1363L3563,1362L3564,1361L3564,1360L3568,1356L3573,1356L3574,1355L3574,1353L3575,1352L3575,1341L3578,1338L3579,1338L3580,1337L3585,1337L3587,1339L3588,1339L3588,1338L3587,1337L3587,1335L3586,1334L3586,1330L3587,1329L3587,1327L3588,1326L3588,1325L3589,1324L3589,1322L3590,1321L3590,1319L3592,1317L3593,1317L3594,1316L3597,1316L3600,1319L3600,1321L3600,1320L3601,1319L3601,1311L3600,1310L3600,1301L3601,1300L3601,1299L3602,1298L3602,1295L3603,1294L3603,1293L3606,1290L3610,1290L3613,1293L3613,1294L3613,1293L3614,1292L3614,1285L3613,1284L3613,1275L3614,1274L3614,1273L3615,1272L3615,1270L3616,1269L3616,1268L3619,1265L3620,1265L3621,1264L3622,1265L3623,1265L3626,1268L3626,1269L3626,1266L3627,1265L3627,1256L3626,1255L3626,1251L3627,1250L3627,1238L3628,1237L3628,1236L3630,1234L3631,1234L3632,1233L3636,1233L3637,1234L3638,1234L3639,1235L3639,1233L3640,1232L3640,1217L3639,1216L3639,1212L3640,1211L3640,1201L3641,1200L3641,1198L3642,1197L3642,1196L3644,1194L3644,1193L3646,1191L3647,1191L3652,1196L3652,1197L3652,1188L3653,1187L3653,1133L3654,1132L3654,1130L3655,1129L3655,1127L3656,1126L3656,1125L3659,1122L3659,1013L3655,1009L3655,1008L3654,1007L3654,1005L3653,1004L3653,1001L3652,1000L3652,994L3653,993L3653,941L3652,940L3652,934L3652,935L3649,938L3645,938L3642,935L3642,934L3641,933L3641,930L3640,929L3640,923L3639,922L3639,917L3640,916L3640,898L3639,897L3639,894L3639,895L3637,897L3636,897L3635,898L3633,898L3632,897L3631,897L3629,895L3629,894L3628,893L3628,889L3627,888L3627,885L3626,884L3626,881L3625,880L3625,877L3626,876L3626,873L3625,874L3623,874L3622,875L3621,875L3620,874L3618,874L3617,873L3616,873L3611,868L3611,864L3612,863L3612,862L3613,861L3613,860Z M3618,851L3618,853L3617,854L3617,857L3618,858L3621,858L3623,856L3623,854L3622,853L3622,852L3621,851Z M3506,851L3505,852L3504,852L3503,853L3503,854L3502,855L3502,856L3503,857L3504,857L3505,858L3508,858L3509,857L3509,853L3508,852L3507,852Z M2247,851L2246,852L2247,853L2247,854L2250,854L2250,851Z M3297,839L3295,841L3295,843L3297,845L3300,845L3302,843L3302,841L3301,840L3301,839Z M2233,836L2231,838L2231,840L2234,843L2239,843L2240,842L2240,836Z M2233,785L2232,786L2232,787L2231,788L2231,793L2232,793L2233,794L2239,794L2239,785Z M3297,783L3296,784L3295,784L3295,785L3294,786L3295,787L3295,789L3296,790L3297,790L3298,791L3300,791L3302,789L3302,784L3301,783Z M2248,773L2245,776L2245,779L2246,780L2252,780L2253,779L2253,775L2251,773Z M2659,760L2660,759L2667,759L2668,760L2670,760L2671,761L2672,761L2673,762L2675,762L2676,763L2677,763L2678,764L2680,764L2681,765L2750,765L2751,764L2758,764L2759,765L2761,765L2762,766L2765,766L2766,767L2770,767L2771,768L2812,768L2813,767L2814,767L2815,766L2818,766L2819,765L2821,765L2825,769L2825,770L2824,771L2824,772L2822,774L2817,774L2816,773L2815,773L2814,772L2813,772L2812,771L2809,771L2808,770L2761,770L2760,769L2689,769L2688,770L2684,770L2683,769L2627,769L2626,770L2625,770L2624,769L2590,769L2589,770L2564,770L2563,771L2558,771L2557,770L2487,770L2486,771L2483,771L2482,772L2478,772L2477,773L2425,773L2424,774L2409,774L2408,775L2400,775L2399,776L2396,776L2395,777L2392,777L2391,778L2376,778L2375,777L2374,777L2372,775L2372,773L2373,772L2374,772L2375,771L2376,771L2377,770L2379,770L2380,769L2383,769L2384,768L2486,768L2487,767L2556,767L2557,768L2563,768L2564,767L2571,767L2572,766L2575,766L2576,765L2577,765L2578,764L2579,764L2580,763L2581,763L2582,762L2585,762L2586,761L2590,761L2591,760Z M3286,745L3286,747L3288,749L3289,749L3289,745Z M3279,739L3280,740L3280,739Z M2276,720L2275,721L2272,721L2271,722L2271,724L2270,725L2270,727L2271,728L2272,728L2273,729L2278,729L2279,728L2279,722L2278,721L2277,721Z M2286,707L2285,708L2284,708L2283,709L2283,715L2284,716L2292,716L2292,708L2291,707Z M3448,695L3448,696L3447,697L3447,702L3448,703L3453,703L3454,702L3455,702L3455,697L3453,695Z M2299,695L2297,697L2297,702L2298,702L2299,703L2304,703L2304,702L2305,701L2305,697L2304,696L2304,695Z M2326,681L2325,682L2324,682L2322,684L2322,689L2323,690L2330,690L2331,689L2331,683L2329,681Z M2339,672L2338,673L2338,675L2339,675L2340,676L2341,676L2342,675L2342,672Z M3234,666L3235,665L3245,665L3246,666L3247,666L3250,669L3250,670L3251,671L3251,677L3252,678L3261,678L3265,682L3265,691L3274,691L3278,695L3278,705L3280,707L3282,707L3283,708L3285,708L3289,712L3289,714L3290,715L3290,716L3291,717L3291,718L3292,719L3292,721L3293,722L3293,723L3292,724L3292,727L3291,728L3291,734L3294,731L3300,731L3302,733L3302,734L3303,735L3303,741L3304,742L3304,745L3305,746L3305,750L3304,751L3304,776L3304,775L3305,774L3305,773L3308,770L3311,770L3312,771L3313,771L3314,772L3314,773L3315,774L3315,776L3316,777L3316,780L3317,781L3317,848L3316,849L3316,854L3315,855L3315,857L3312,860L3311,860L3310,861L3309,861L3308,860L3307,860L3305,858L3305,857L3304,856L3304,855L3304,892L3305,893L3305,894L3304,895L3304,899L3303,900L3303,903L3302,904L3302,906L3299,909L3294,909L3292,907L3292,906L3291,905L3291,904L3291,934L3290,935L3290,936L3287,939L3286,939L3285,940L3282,940L3280,938L3279,938L3278,937L3278,939L3279,940L3279,943L3280,944L3280,945L3279,946L3279,948L3278,949L3278,952L3277,953L3277,958L3276,959L3276,960L3274,962L3273,962L3272,963L3269,963L3268,962L3266,962L3265,963L3265,965L3266,966L3266,968L3267,969L3267,971L3266,972L3266,974L3263,977L3262,977L3261,978L3260,978L3259,979L3256,979L3255,978L3254,978L3253,977L3252,977L3253,978L3253,979L3254,980L3254,985L3253,986L3253,987L3250,990L3249,990L3248,991L3247,991L3246,992L3243,992L3242,991L3241,991L3240,990L3239,990L3242,993L3242,997L3241,998L3241,999L3237,1003L3236,1003L3235,1004L3231,1004L3230,1003L3225,1003L3225,1011L3222,1014L3221,1014L3220,1015L3213,1015L3212,1016L3211,1016L3207,1020L3207,1021L3202,1026L3201,1026L3199,1028L3198,1028L3197,1029L3187,1029L3186,1028L3184,1028L3179,1033L3177,1033L3176,1032L3176,1030L3179,1027L3180,1027L3181,1026L3182,1026L3183,1025L3183,1024L3184,1023L3184,1022L3185,1021L3185,1020L3190,1015L3199,1015L3199,1007L3200,1006L3200,1005L3203,1002L3212,1002L3212,999L3211,998L3211,992L3212,991L3212,990L3214,988L3215,988L3217,986L3223,986L3223,980L3224,979L3224,978L3225,977L3225,976L3226,975L3226,974L3227,973L3227,972L3230,969L3231,969L3232,968L3236,968L3237,967L3237,966L3238,965L3238,953L3242,949L3243,949L3244,948L3247,948L3248,949L3249,949L3250,950L3251,950L3251,948L3250,947L3250,940L3251,939L3251,936L3252,935L3252,931L3253,930L3253,928L3255,926L3256,926L3257,925L3260,925L3264,929L3264,930L3264,901L3265,900L3265,898L3266,897L3266,895L3267,894L3267,892L3270,889L3272,889L3275,892L3275,893L3276,894L3276,896L3277,896L3277,752L3276,753L3276,754L3273,757L3270,757L3269,756L3268,756L3267,755L3267,754L3266,753L3266,752L3265,751L3265,746L3264,745L3264,713L3264,714L3263,715L3263,716L3262,717L3261,717L3260,718L3257,718L3256,717L3255,717L3253,715L3253,714L3252,713L3252,707L3251,706L3251,689L3250,689L3249,688L3244,688L3243,687L3242,687L3241,686L3241,685L3240,684L3240,682L3239,681L3239,679L3238,678L3238,677L3237,676L3237,675L3236,674L3236,673L3235,672L3235,669L3234,668Z M3436,659L3435,660L3435,662L3436,662L3437,663L3438,663L3440,661L3440,660L3439,659Z M2366,656L2365,657L2364,657L2362,659L2362,663L2363,663L2364,664L2368,664L2369,663L2369,657L2368,657L2367,656Z M3225,654L3226,653L3230,653L3234,657L3234,659L3235,660L3235,663L3234,664L3231,664L3230,663L3229,663L3226,660L3226,659L3225,658Z M3422,644L3421,645L3421,649L3428,649L3429,648L3429,645L3428,644Z M2390,643L2389,644L2388,644L2388,645L2387,646L2387,650L2388,651L2395,651L2395,650L2396,649L2396,647L2395,646L2395,644L2394,643Z M2417,629L2416,630L2414,630L2414,631L2413,632L2413,634L2412,635L2412,636L2413,637L2413,638L2421,638L2421,637L2422,636L2422,633L2421,632L2421,630L2420,630L2419,629Z M2442,619L2441,620L2441,624L2444,624L2445,623L2445,620L2444,619Z M3409,617L3408,618L3408,625L3416,625L3417,624L3417,620L3416,619L3416,618L3415,617Z M3397,607L3397,608L3400,608L3400,607Z M2469,604L2468,605L2467,605L2466,606L2466,608L2465,609L2465,610L2467,612L2471,612L2471,611L2472,610L2472,607L2471,606L2471,605L2470,604Z M3397,594L3397,595L3396,596L3397,597L3397,598L3400,598L3401,597L3401,595L3400,594Z M2482,594L2480,596L2482,598L2484,598L2485,597L2485,595L2484,594Z M2508,581L2506,583L2506,584L2507,585L2510,585L2511,584L2511,582L2510,581Z M3384,579L3383,580L3383,582L3382,583L3382,584L3383,585L3383,586L3388,586L3389,585L3390,585L3390,581L3388,579Z M2545,567L2545,568L2544,569L2544,571L2546,573L2547,573L2548,572L2548,567Z M3371,565L3370,566L3370,567L3369,568L3369,572L3370,573L3377,573L3377,572L3378,571L3378,568L3375,565Z M3358,552L3357,553L3357,554L3356,555L3356,559L3357,560L3364,560L3365,559L3365,555L3362,552Z M2572,552L2571,553L2570,553L2569,554L2569,555L2568,556L2568,559L2569,560L2576,560L2577,559L2577,554L2575,552Z M2597,540L2595,542L2595,546L2596,547L2602,547L2602,545L2603,544L2602,543L2602,541L2601,540Z M3345,539L3344,540L3344,541L3343,542L3343,546L3344,547L3351,547L3352,546L3352,542L3349,539Z M2624,529L2623,530L2623,532L2624,533L2627,533L2627,530L2626,529Z M3334,526L3333,527L3331,527L3331,530L3330,531L3330,532L3331,533L3331,534L3338,534L3338,533L3339,532L3339,530L3338,529L3338,528L3337,527L3335,527Z M3320,516L3319,517L3319,520L3322,520L3323,519L3323,517L3322,516Z M3309,515L3308,516L3308,521L3310,521L3311,520L3311,516L3310,515Z M2661,514L2660,515L2660,516L2659,517L2659,520L2660,521L2667,521L2667,514Z M3293,500L3292,501L3292,502L3291,503L3291,508L3292,509L3298,509L3299,508L3300,508L3300,502L3298,500Z M3281,490L3280,491L3280,494L3284,494L3284,491L3283,490Z M3255,477L3254,478L3254,481L3258,481L3258,478L3257,477Z M2778,475L2776,477L2776,481L2777,482L2778,482L2779,483L2782,483L2783,482L2784,482L2784,476L2783,475Z M3229,465L3228,466L3228,468L3232,468L3232,466L3231,465Z M2819,465L2818,466L2818,468L2821,468L2821,465Z M3188,452L3188,454L3190,456L3192,456L3193,455L3194,455L3195,454L3195,452Z M2968,452L2964,456L2962,456L2961,457L2959,457L2958,458L2953,458L2952,459L2944,459L2943,458L2909,458L2908,459L2892,459L2895,459L2896,460L2898,460L2900,462L2900,463L2901,464L2901,465L2897,469L2893,469L2892,470L2889,470L2888,471L2873,471L2872,472L2871,472L2870,471L2848,471L2847,472L2836,472L2837,472L2842,477L2842,478L2839,481L2838,481L2836,483L2834,483L2833,484L2823,484L2822,485L2816,485L2815,484L2797,484L2796,485L2791,485L2792,485L2795,488L2795,489L2796,490L2796,491L2792,495L2791,495L2790,496L2788,496L2787,497L2785,497L2784,498L2776,498L2775,497L2756,497L2755,498L2748,498L2750,498L2752,500L2753,500L2754,501L2754,502L2755,503L2755,504L2752,507L2751,507L2750,508L2749,508L2748,509L2746,509L2745,510L2716,510L2715,511L2709,511L2710,511L2711,512L2712,512L2715,515L2715,518L2713,520L2712,520L2711,521L2709,521L2708,522L2707,522L2706,523L2679,523L2678,524L2675,524L2676,524L2679,527L2679,531L2676,534L2674,534L2673,535L2671,535L2670,536L2668,536L2667,537L2660,537L2659,536L2645,536L2644,537L2643,537L2645,539L2645,540L2646,541L2646,543L2645,544L2645,545L2643,547L2642,547L2641,548L2640,548L2639,549L2627,549L2626,550L2622,550L2621,549L2616,549L2615,550L2613,550L2614,550L2615,551L2615,552L2616,553L2616,557L2612,561L2607,561L2606,562L2602,562L2601,563L2596,563L2595,562L2586,562L2585,563L2584,563L2585,563L2588,566L2588,570L2585,573L2583,573L2582,574L2580,574L2579,575L2577,575L2576,576L2570,576L2569,575L2554,575L2554,576L2558,580L2558,582L2554,586L2553,586L2552,587L2551,587L2550,588L2535,588L2534,589L2530,589L2529,588L2526,588L2526,589L2530,593L2530,595L2526,599L2525,599L2524,600L2522,600L2521,601L2510,601L2509,602L2504,602L2503,601L2500,601L2500,602L2503,605L2503,608L2502,609L2502,610L2499,613L2497,613L2496,614L2484,614L2483,615L2476,615L2478,617L2478,618L2479,619L2479,620L2478,621L2478,622L2473,627L2470,627L2469,628L2468,627L2457,627L2456,628L2451,628L2450,627L2452,629L2453,629L2454,630L2454,631L2455,632L2455,633L2450,638L2449,638L2448,639L2447,639L2446,640L2432,640L2431,641L2428,641L2429,642L2429,643L2430,644L2430,647L2426,651L2425,651L2424,652L2423,652L2422,653L2421,653L2420,654L2414,654L2413,653L2401,653L2402,653L2403,654L2404,654L2405,655L2405,656L2406,657L2406,661L2404,663L2403,663L2402,664L2400,664L2399,665L2397,665L2396,666L2395,666L2394,667L2388,667L2387,666L2379,666L2380,666L2383,669L2383,674L2380,677L2378,677L2377,678L2371,678L2370,679L2368,679L2367,680L2361,680L2360,679L2357,679L2359,681L2359,682L2360,683L2360,686L2359,687L2359,688L2356,691L2354,691L2353,692L2349,692L2348,691L2346,691L2345,692L2342,692L2341,693L2340,693L2339,694L2340,695L2340,698L2339,699L2339,700L2338,701L2337,701L2335,703L2334,703L2333,704L2332,704L2331,705L2330,705L2329,706L2324,706L2323,705L2313,705L2314,705L2317,708L2317,712L2316,713L2316,714L2315,715L2314,715L2313,716L2310,716L2309,717L2306,717L2305,718L2304,718L2303,719L2302,719L2301,720L2299,720L2298,721L2297,721L2297,723L2296,724L2296,726L2295,727L2295,728L2293,730L2293,731L2292,732L2292,733L2288,737L2284,737L2281,734L2281,733L2281,770L2283,772L2284,772L2285,773L2287,773L2288,774L2290,774L2291,775L2292,775L2293,776L2295,776L2296,777L2302,777L2303,778L2318,778L2319,777L2322,777L2323,776L2328,776L2329,775L2331,775L2332,774L2335,774L2336,773L2342,773L2343,772L2347,772L2348,773L2351,773L2354,776L2353,777L2353,778L2352,779L2351,779L2349,781L2347,781L2346,782L2344,782L2343,783L2336,783L2335,782L2267,782L2266,783L2262,783L2263,783L2265,785L2265,786L2266,787L2266,790L2263,793L2262,793L2261,794L2258,794L2257,795L2253,795L2252,796L2241,796L2241,819L2242,820L2242,833L2243,832L2244,832L2245,831L2250,831L2251,832L2252,832L2255,835L2255,836L2256,837L2256,839L2257,840L2257,841L2256,842L2256,844L2255,845L2255,846L2258,846L2259,845L2262,845L2263,846L2265,846L2266,847L2267,847L2269,849L2270,849L2271,850L2272,850L2273,851L2273,852L2274,853L2274,855L2275,856L2275,857L2276,857L2277,858L2278,858L2279,859L2282,859L2283,860L2290,860L2293,863L2293,864L2294,865L2294,868L2293,869L2293,870L2292,871L2292,872L2295,872L2296,871L2304,871L2305,872L2307,872L2308,873L2312,873L2313,874L2314,874L2317,877L2317,884L2318,885L2330,885L2331,886L2332,886L2333,887L2334,887L2338,891L2338,892L2339,893L2338,894L2338,895L2337,896L2340,896L2341,897L2343,897L2344,898L2355,898L2356,899L2357,899L2358,900L2358,901L2360,903L2360,907L2359,908L2359,909L2358,910L2369,910L2370,911L2374,911L2375,912L2380,912L2383,915L2383,921L2381,923L2382,923L2383,924L2385,924L2386,923L2395,923L2396,924L2397,924L2398,925L2400,925L2401,926L2402,926L2405,929L2405,930L2406,931L2406,932L2405,933L2405,936L2408,936L2409,937L2413,937L2414,936L2419,936L2420,937L2422,937L2426,941L2426,942L2427,943L2427,946L2426,947L2426,948L2425,949L2424,949L2425,949L2426,948L2430,948L2431,949L2434,949L2435,950L2444,950L2445,951L2446,951L2449,954L2449,960L2447,962L2460,962L2461,963L2468,963L2469,964L2471,964L2473,966L2473,967L2474,968L2474,972L2473,973L2473,974L2472,975L2474,975L2475,976L2476,975L2479,975L2480,974L2483,974L2484,975L2486,975L2487,976L2489,976L2490,977L2491,977L2492,978L2493,978L2496,981L2496,986L2495,987L2496,988L2499,988L2500,989L2503,989L2504,988L2510,988L2511,989L2512,989L2513,990L2514,990L2515,991L2516,991L2520,995L2520,998L2518,1000L2522,1000L2523,1001L2525,1001L2526,1002L2537,1002L2541,1006L2541,1008L2542,1009L2541,1010L2541,1011L2540,1012L2540,1013L2539,1014L2551,1014L2552,1015L2556,1015L2557,1014L2560,1014L2561,1015L2563,1015L2567,1019L2567,1024L2566,1025L2566,1026L2565,1027L2569,1027L2570,1026L2573,1026L2574,1027L2577,1027L2578,1028L2584,1028L2585,1029L2587,1029L2590,1032L2590,1037L2589,1038L2589,1039L2588,1040L2587,1040L2603,1040L2604,1041L2610,1041L2611,1042L2613,1042L2616,1045L2616,1050L2613,1053L2623,1053L2624,1052L2625,1052L2626,1053L2629,1053L2630,1054L2637,1054L2638,1055L2639,1055L2642,1058L2642,1063L2641,1064L2641,1065L2640,1066L2639,1066L2646,1066L2647,1065L2653,1065L2654,1066L2655,1066L2656,1067L2658,1067L2659,1068L2661,1068L2662,1069L2663,1069L2665,1071L2665,1072L2666,1073L2666,1074L2665,1075L2665,1076L2662,1079L2660,1079L2675,1079L2676,1078L2677,1078L2678,1079L2682,1079L2683,1080L2686,1080L2687,1081L2689,1081L2692,1084L2692,1085L2693,1086L2693,1087L2692,1088L2692,1089L2689,1092L2688,1092L2700,1092L2701,1091L2704,1091L2705,1092L2708,1092L2709,1093L2714,1093L2715,1094L2717,1094L2720,1097L2720,1101L2719,1102L2719,1103L2717,1105L2716,1105L2725,1105L2726,1104L2730,1104L2731,1105L2734,1105L2735,1106L2741,1106L2742,1107L2743,1107L2745,1109L2745,1110L2746,1111L2746,1114L2745,1115L2745,1116L2743,1118L2742,1118L2768,1118L2769,1119L2771,1119L2774,1122L2774,1123L2775,1124L2775,1127L2773,1129L2773,1130L2772,1131L2776,1131L2777,1130L2781,1130L2782,1131L2793,1131L2794,1132L2796,1132L2797,1133L2798,1133L2801,1136L2801,1137L2802,1138L2802,1139L2800,1141L2800,1142L2799,1143L2798,1143L2798,1144L2816,1144L2817,1143L2821,1143L2822,1144L2825,1144L2826,1145L2829,1145L2830,1146L2831,1146L2832,1147L2833,1147L2834,1148L2834,1149L2835,1150L2835,1153L2832,1156L2831,1156L2831,1157L2861,1157L2862,1158L2864,1158L2865,1159L2866,1159L2867,1160L2868,1160L2870,1162L2870,1163L2871,1164L2871,1165L2867,1169L2866,1169L2866,1170L2904,1170L2905,1171L2910,1171L2911,1172L2913,1172L2915,1174L2915,1175L2916,1176L2916,1178L2915,1179L2915,1180L2913,1182L2912,1182L2913,1183L2968,1183L2969,1184L2971,1184L2972,1185L2974,1185L2978,1189L2978,1191L2977,1192L2977,1193L2976,1194L2975,1194L2974,1195L2973,1195L2975,1195L2976,1196L3163,1196L3164,1195L3166,1195L3165,1195L3162,1192L3162,1188L3164,1186L3165,1186L3166,1185L3167,1185L3168,1184L3171,1184L3172,1183L3177,1183L3178,1182L3179,1183L3212,1183L3213,1182L3212,1181L3211,1181L3210,1180L3210,1179L3209,1178L3209,1176L3214,1171L3217,1171L3218,1170L3244,1170L3244,1169L3243,1169L3241,1167L3241,1162L3244,1159L3245,1159L3246,1158L3250,1158L3251,1157L3253,1157L3254,1156L3260,1156L3261,1157L3272,1157L3268,1153L3268,1149L3270,1147L3271,1147L3272,1146L3273,1146L3274,1145L3276,1145L3277,1144L3278,1144L3279,1143L3288,1143L3289,1144L3292,1144L3292,1143L3290,1141L3290,1135L3292,1133L3293,1133L3294,1132L3301,1132L3302,1131L3304,1131L3306,1129L3306,1128L3307,1127L3307,1124L3310,1121L3311,1121L3312,1120L3313,1120L3314,1119L3315,1119L3316,1118L3317,1118L3318,1117L3319,1117L3320,1116L3321,1116L3322,1115L3325,1115L3325,1112L3326,1111L3326,1110L3331,1105L3332,1105L3333,1104L3335,1104L3336,1103L3337,1103L3338,1104L3339,1104L3340,1105L3342,1105L3341,1104L3341,1103L3340,1102L3340,1096L3345,1091L3346,1091L3347,1090L3351,1090L3352,1091L3353,1091L3354,1092L3355,1092L3353,1090L3353,1088L3352,1087L3352,1086L3353,1085L3353,1083L3358,1078L3359,1078L3360,1077L3364,1077L3365,1078L3366,1078L3367,1079L3368,1079L3367,1078L3367,1077L3366,1076L3366,1071L3367,1070L3367,1069L3372,1064L3373,1064L3374,1063L3375,1063L3377,1061L3377,1060L3378,1059L3378,1058L3379,1057L3379,1056L3381,1054L3381,1053L3382,1052L3382,1051L3387,1046L3389,1046L3390,1045L3391,1045L3393,1043L3393,1042L3394,1041L3394,1032L3395,1031L3395,1030L3397,1028L3398,1028L3399,1027L3402,1027L3403,1028L3404,1028L3406,1030L3406,1025L3405,1024L3405,1018L3406,1017L3406,1016L3407,1015L3407,1013L3408,1012L3408,1010L3409,1009L3409,1008L3411,1006L3412,1006L3413,1005L3415,1005L3419,1009L3419,1010L3419,990L3420,989L3420,986L3421,985L3421,983L3422,982L3422,981L3424,979L3425,979L3426,978L3428,978L3432,982L3432,983L3432,964L3433,963L3433,953L3434,952L3434,951L3439,946L3440,946L3445,951L3445,912L3446,911L3446,906L3447,905L3447,902L3448,901L3448,900L3450,898L3451,898L3452,897L3453,897L3454,898L3455,898L3457,900L3457,901L3458,902L3458,904L3458,758L3458,761L3457,762L3457,764L3456,765L3456,766L3455,767L3454,767L3453,768L3452,768L3451,767L3450,767L3449,766L3449,765L3448,764L3448,761L3447,760L3447,757L3446,756L3446,744L3445,743L3445,710L3445,711L3441,715L3439,715L3438,714L3437,714L3435,712L3435,711L3434,710L3434,708L3433,707L3433,704L3432,703L3432,678L3428,682L3426,682L3425,681L3424,681L3423,680L3423,679L3421,677L3421,676L3420,675L3420,666L3419,665L3419,654L3417,656L3416,656L3415,657L3413,657L3412,656L3411,656L3407,652L3407,651L3406,650L3406,642L3407,641L3407,640L3406,639L3406,635L3405,634L3404,635L3399,635L3396,632L3396,631L3395,630L3395,629L3394,628L3394,627L3393,626L3393,625L3392,624L3392,621L3391,620L3392,619L3392,616L3393,615L3393,613L3391,615L3389,615L3388,616L3387,615L3385,615L3381,611L3381,609L3380,608L3380,605L3381,604L3381,601L3380,600L3372,600L3369,597L3369,595L3368,594L3368,588L3366,586L3364,586L3363,585L3360,585L3358,583L3358,582L3357,581L3357,578L3356,577L3356,576L3354,574L3353,574L3352,573L3349,573L3348,572L3347,572L3345,570L3345,569L3344,568L3344,565L3343,564L3343,563L3341,561L3340,561L3339,560L3336,560L3335,559L3334,559L3332,557L3332,556L3331,555L3331,552L3330,551L3330,550L3328,548L3324,548L3323,547L3321,547L3318,544L3318,538L3316,536L3312,536L3311,537L3308,537L3307,536L3306,536L3302,532L3302,526L3303,525L3303,524L3301,524L3300,525L3293,525L3292,524L3291,524L3289,522L3288,522L3287,521L3286,521L3283,518L3283,512L3282,512L3281,511L3279,511L3278,510L3267,510L3263,506L3263,505L3262,504L3262,502L3263,501L3263,500L3265,498L3253,498L3252,497L3241,497L3236,492L3236,488L3239,485L3227,485L3226,484L3216,484L3215,483L3214,483L3213,482L3212,482L3208,478L3208,476L3210,474L3211,474L3213,472L3203,472L3202,471L3197,471L3196,472L3189,472L3188,471L3177,471L3176,470L3175,470L3170,465L3170,463L3174,459L3163,459L3162,458L3142,458L3141,459L3138,459L3137,458L3123,458L3122,457L3119,457L3118,456L3116,456L3115,455L3114,455L3112,453L3112,452Z M2870,452L2870,453L2872,453L2873,452Z" fill="#5A3E2B" fill-rule="evenodd" />
</svg>